<?xml version="1.0" encoding="iso-8859-1"?>
<!-- Uploaded to: SVG Repo, www.svgrepo.com, Generator: SVG Repo Mixer Tools -->
<svg height="800px" width="800px" version="1.1" id="Layer_1" xmlns="http://www.w3.org/2000/svg" xmlns:xlink="http://www.w3.org/1999/xlink" 
	 viewBox="0 0 512 512" xml:space="preserve">
<g>
	<path style="fill:#E5E5E5;" d="M472.575,3.154H39.425C17.686,3.154,0,20.84,0,42.579v281.758c0,21.74,17.686,39.425,39.425,39.425
		h433.15c21.74,0,39.425-17.686,39.425-39.425V42.579C512,20.84,494.314,3.154,472.575,3.154z"/>
	<path style="fill:#E5E5E5;" d="M39.425,3.154C17.686,3.154,0,20.84,0,42.579v281.758c0,21.74,17.686,39.425,39.425,39.425h395.302
		V3.154H39.425z"/>
</g>
<path style="fill:#CCCCCC;" d="M53.092,333.799c-11.032,0-19.975-8.944-19.975-19.975V12.616c0-3.134,0.378-6.18,1.072-9.104
	C14.918,6.082,0,22.615,0,42.579v281.758c0,21.774,17.651,39.425,39.425,39.425h395.302v-29.963H53.092z"/>
<path style="fill:#458FDE;" d="M472.575,3.154h-37.848v360.608h37.848c21.74,0,39.425-17.686,39.425-39.425V42.579
	C512,20.84,494.314,3.154,472.575,3.154z"/>
<path style="fill:#4F5AA8;" d="M457.856,206.062c-4.356,0-7.885-3.53-7.885-7.885v-29.437c0-4.355,3.529-7.885,7.885-7.885
	c4.356,0,7.885,3.53,7.885,7.885v29.437C465.741,202.531,462.212,206.062,457.856,206.062z"/>
<path style="fill:#FF7452;" d="M338.53,242.333H98.825c-17.42,0-31.54-14.12-31.54-31.54v-84.107c0-17.42,14.12-31.54,31.54-31.54
	H338.53c17.42,0,31.54,14.12,31.54,31.54v84.107C370.07,228.212,355.949,242.333,338.53,242.333z"/>
<g>
	<path style="fill:#C42725;" d="M181.881,123.006h-29.437c-4.355,0-7.885,3.53-7.885,7.885v69.388c0,4.355,3.53,7.885,7.885,7.885
		h29.437c4.355,0,7.885-3.53,7.885-7.885v-69.388C189.766,126.537,186.236,123.006,181.881,123.006z M173.996,192.394h-13.667
		v-13.667h13.667V192.394z M173.996,162.957h-13.667v-24.181h13.667V162.957z"/>
	<path style="fill:#C42725;" d="M230.242,123.006c-4.355,0-7.885,3.53-7.885,7.885v44.156c0,4.355,3.53,7.885,7.885,7.885
		s7.885-3.53,7.885-7.885v-44.156C238.127,126.537,234.597,123.006,230.242,123.006z"/>
	<path style="fill:#C42725;" d="M211.844,192.394h-1.051v-61.503c0-4.355-3.53-7.885-7.885-7.885s-7.885,3.53-7.885,7.885v69.388
		c0,4.355,3.53,7.885,7.885,7.885h8.936c4.355,0,7.885-3.53,7.885-7.885S216.199,192.394,211.844,192.394z"/>
	<path style="fill:#C42725;" d="M272.523,173.139c0.192-0.286,0.371-0.579,0.524-0.886l18.918-37.835
		c1.948-3.895,0.369-8.631-3.526-10.579c-3.897-1.948-8.633-0.369-10.58,3.526l-11.452,22.904l-10.036-22.581
		c-1.768-3.98-6.429-5.773-10.407-4.003c-3.979,1.768-5.772,6.428-4.003,10.407l16.818,37.841c0.143,0.324,0.316,0.635,0.503,0.939
		c0.042,0.068,0.084,0.137,0.127,0.203c0.186,0.284,0.387,0.558,0.611,0.818c0.025,0.029,0.054,0.055,0.079,0.084
		c0.2,0.224,0.415,0.436,0.641,0.638c0.066,0.059,0.132,0.118,0.201,0.175c0.243,0.203,0.497,0.395,0.769,0.571
		c0.015,0.009,0.027,0.021,0.042,0.029c0.227,0.144,0.464,0.279,0.71,0.402c0.049,0.025,0.102,0.041,0.151,0.065
		c0.112,0.053,0.226,0.099,0.341,0.146c0.216,0.09,0.431,0.171,0.651,0.242c0.111,0.036,0.222,0.068,0.335,0.099
		c0.242,0.065,0.484,0.117,0.726,0.158c0.098,0.017,0.193,0.038,0.291,0.05c0.342,0.045,0.683,0.074,1.025,0.074
		c0,0,0.001,0,0.002,0c0.003,0,0.005,0.001,0.008,0.001c0.325,0,0.651-0.027,0.977-0.068c0.082-0.011,0.162-0.025,0.243-0.038
		c0.246-0.039,0.492-0.09,0.737-0.153c0.089-0.023,0.179-0.045,0.267-0.071c0.258-0.076,0.512-0.167,0.765-0.271
		c0.056-0.023,0.115-0.041,0.169-0.065c0.013-0.005,0.025-0.009,0.039-0.015c0.285-0.126,0.554-0.271,0.816-0.426
		c0.073-0.043,0.142-0.091,0.212-0.137c0.212-0.135,0.416-0.279,0.612-0.431c0.071-0.056,0.143-0.11,0.213-0.168
		c0.25-0.209,0.49-0.428,0.71-0.663c0.014-0.015,0.025-0.031,0.038-0.045c0.212-0.231,0.407-0.477,0.589-0.731
		C272.429,173.277,272.475,173.208,272.523,173.139z"/>
</g>
<path style="fill:#E24642;" d="M363.236,221.306H107.762c-8.709,0-15.77-7.061-15.77-15.77v-99.877
	c0-3.527,0.588-6.916,1.656-10.083c-14.954,2.472-26.362,15.455-26.362,31.11v84.107c0,17.42,14.12,31.54,31.54,31.54H338.53
	c13.891,0,25.677-8.985,29.884-21.457C366.729,221.155,365,221.306,363.236,221.306z"/>
<g>
	<path style="fill:#FB9D46;" d="M220.255,69.388c-4.355,0-7.885-3.53-7.885-7.885V32.066c0-4.355,3.53-7.885,7.885-7.885
		s7.885,3.53,7.885,7.885v29.437C228.14,65.858,224.609,69.388,220.255,69.388z"/>
	<path style="fill:#FB9D46;" d="M169.795,69.388c-2.259,0-4.502-0.965-6.062-2.838l-21.027-25.232
		c-2.788-3.345-2.336-8.317,1.009-11.105c3.344-2.788,8.316-2.337,11.105,1.009l21.027,25.232c2.788,3.345,2.336,8.317-1.009,11.105
		C173.364,68.789,171.575,69.388,169.795,69.388z"/>
	<path style="fill:#FB9D46;" d="M270.714,69.388c-1.78,0-3.57-0.599-5.044-1.827c-3.345-2.788-3.796-7.76-1.009-11.105
		l21.027-25.232c2.788-3.345,7.762-3.796,11.105-1.009c3.345,2.788,3.796,7.76,1.009,11.105l-21.027,25.232
		C275.216,68.422,272.974,69.388,270.714,69.388z"/>
</g>
<path style="fill:#FFD652;" d="M469.947,297.528H297.528v-93.043c0-21.774-17.651-39.425-39.425-39.425h-8.411
	c-21.774,0-39.425,17.651-39.425,39.425v296.476c0,4.355,3.53,7.885,7.885,7.885h285.963c4.355,0,7.885-3.53,7.885-7.885v-161.38
	C512,316.356,493.172,297.528,469.947,297.528z"/>
<g>
	<path style="fill:#FB9D46;" d="M305.413,374.275c4.356,0,7.885-3.53,7.885-7.885v-68.862h-15.77v68.862
		C297.528,370.745,301.057,374.275,305.413,374.275z"/>
	<path style="fill:#FB9D46;" d="M372.698,374.275c4.356,0,7.885-3.53,7.885-7.885v-68.862h-15.77v68.862
		C364.813,370.745,368.342,374.275,372.698,374.275z"/>
	<path style="fill:#FB9D46;" d="M439.984,374.275c4.356,0,7.885-3.53,7.885-7.885v-68.862h-15.77v68.862
		C432.099,370.745,435.628,374.275,439.984,374.275z"/>
	<path style="fill:#FB9D46;" d="M270.456,167.053c-3.889-1.287-8.039-1.993-12.353-1.993h-8.411
		c-21.774,0-39.425,17.651-39.425,39.425v296.476c0,4.355,3.53,7.885,7.885,7.885h25.232V204.485
		C243.384,187.06,254.751,172.25,270.456,167.053z"/>
</g>
</svg>