<?xml version="1.0" encoding="iso-8859-1"?>
<!-- Uploaded to: SVG Repo, www.svgrepo.com, Generator: SVG Repo Mixer Tools -->
<svg height="800px" width="800px" version="1.1" id="Layer_1" xmlns="http://www.w3.org/2000/svg" xmlns:xlink="http://www.w3.org/1999/xlink" 
	 viewBox="0 0 512 512" xml:space="preserve">
<circle style="fill:#FF7452;" cx="412.549" cy="478.76" r="33.24"/>
<path style="fill:#E24642;" d="M429.705,494.844c-18.358,0-33.24-14.882-33.24-33.24c0-4.733,0.995-9.231,2.778-13.306
	c-11.733,5.132-19.934,16.836-19.934,30.462c0,18.358,14.882,33.24,33.24,33.24c13.625,0,25.33-8.202,30.462-19.934
	C438.935,493.849,434.438,494.844,429.705,494.844z"/>
<circle style="fill:#FF7452;" cx="172.364" cy="478.76" r="33.24"/>
<path style="fill:#E24642;" d="M190.593,493.772c-18.358,0-33.24-14.882-33.24-33.24c0-4.442,0.878-8.678,2.46-12.552
	c-12.134,4.954-20.688,16.864-20.688,30.78c0,18.358,14.882,33.24,33.24,33.24c13.916,0,25.826-8.554,30.78-20.688
	C199.27,492.894,195.035,493.772,190.593,493.772z"/>
<path style="fill:#FFD652;" d="M477.956,137.248H104.813c-4.442,0-8.042,3.6-8.042,8.042v287.363c0,4.442,3.6,8.042,8.042,8.042
	h373.143c4.442,0,8.042-3.6,8.042-8.042V145.29C485.998,140.848,482.398,137.248,477.956,137.248z"/>
<path style="fill:#F7EDBC;" d="M477.956,137.248h-84.708v303.447h84.708c4.442,0,8.042-3.6,8.042-8.042V145.29
	C485.998,140.848,482.398,137.248,477.956,137.248z"/>
<path style="fill:#FFD652;" d="M104.813,137.248c-4.442,0-8.042,3.6-8.042,8.042v287.363c0,4.442,3.6,8.042,8.042,8.042h288.436
	V137.248H104.813z"/>
<g>
	<path style="fill:#FB9D46;" d="M104.813,137.248c-4.442,0-8.042,3.6-8.042,8.042v287.363c0,4.442,3.6,8.042,8.042,8.042h155.716
		L120.09,137.248H104.813z"/>
	<path style="fill:#FB9D46;" d="M181.21,137.248v134.568c0,10.346,8.418,18.764,18.764,18.764h90.069
		c10.346,0,18.764-8.418,18.764-18.764V137.248H181.21z"/>
</g>
<path style="fill:#FF7452;" d="M191.933,271.816c0,4.442,3.6,8.042,8.042,8.042h90.069c4.442,0,8.042-3.6,8.042-8.042V137.248
	H191.933V271.816z"/>
<g>
	<path style="fill:#666666;" d="M133.495,408.528c-4.442,0-8.042-3.6-8.042-8.042V316.85c0-4.442,3.6-8.042,8.042-8.042
		c4.442,0,8.042,3.6,8.042,8.042v83.636C141.537,404.928,137.938,408.528,133.495,408.528z"/>
	<path style="fill:#666666;" d="M172.096,408.528c-4.442,0-8.042-3.6-8.042-8.042V316.85c0-4.442,3.6-8.042,8.042-8.042
		c4.442,0,8.042,3.6,8.042,8.042v83.636C180.138,404.928,176.539,408.528,172.096,408.528z"/>
	<path style="fill:#666666;" d="M193.541,408.528c-4.442,0-8.042-3.6-8.042-8.042V316.85c0-4.442,3.6-8.042,8.042-8.042
		c4.442,0,8.042,3.6,8.042,8.042v83.636C201.583,404.928,197.984,408.528,193.541,408.528z"/>
	<path style="fill:#666666;" d="M214.986,408.528c-4.442,0-8.042-3.6-8.042-8.042V316.85c0-4.442,3.6-8.042,8.042-8.042
		s8.042,3.6,8.042,8.042v83.636C223.028,404.928,219.429,408.528,214.986,408.528z"/>
	<path style="fill:#666666;" d="M236.431,408.528c-4.442,0-8.042-3.6-8.042-8.042V316.85c0-4.442,3.6-8.042,8.042-8.042
		c4.442,0,8.042,3.6,8.042,8.042v83.636C244.473,404.928,240.874,408.528,236.431,408.528z"/>
	<path style="fill:#666666;" d="M275.032,408.528c-4.442,0-8.042-3.6-8.042-8.042V316.85c0-4.442,3.6-8.042,8.042-8.042
		c4.442,0,8.042,3.6,8.042,8.042v83.636C283.074,404.928,279.475,408.528,275.032,408.528z"/>
	<path style="fill:#666666;" d="M296.477,408.528c-4.442,0-8.042-3.6-8.042-8.042V316.85c0-4.442,3.6-8.042,8.042-8.042
		c4.442,0,8.042,3.6,8.042,8.042v83.636C304.519,404.928,300.92,408.528,296.477,408.528z"/>
	<path style="fill:#666666;" d="M337.223,408.528c-4.442,0-8.042-3.6-8.042-8.042V316.85c0-4.442,3.6-8.042,8.042-8.042
		c4.442,0,8.042,3.6,8.042,8.042v83.636C345.265,404.928,341.665,408.528,337.223,408.528z"/>
	<path style="fill:#666666;" d="M356.524,408.528c-4.442,0-8.042-3.6-8.042-8.042V316.85c0-4.442,3.6-8.042,8.042-8.042
		s8.042,3.6,8.042,8.042v83.636C364.565,404.928,360.966,408.528,356.524,408.528z"/>
</g>
<circle style="fill:#5AC779;" cx="289.24" cy="65.943" r="60.046"/>
<path style="fill:#00A085;" d="M309.613,104.545c-33.163,0-60.046-26.883-60.046-60.046c0-10.664,2.792-20.67,7.666-29.35
	c-16.843,10.637-28.038,29.402-28.038,50.795c0,33.163,26.883,60.046,60.046,60.046c22.499,0,42.097-12.382,52.381-30.696
	C332.353,101.144,321.383,104.545,309.613,104.545z"/>
<path style="fill:#AFF078;" d="M284.954,88.997c-2.202,0-4.394-0.9-5.98-2.661l-19.301-21.445
	c-2.971-3.301-2.703-8.386,0.597-11.357c3.3-2.971,8.385-2.705,11.357,0.597l13.996,15.551l28.345-24.801
	c3.34-2.923,8.421-2.587,11.348,0.757c2.925,3.342,2.585,8.423-0.757,11.348l-34.312,30.023
	C288.722,88.342,286.835,88.997,284.954,88.997z"/>
<path style="fill:#4C4C4C;" d="M503.69,442.84H76.934c-4.442,0-8.042-3.6-8.042-8.042V40.209c0-13.302-10.823-24.126-24.126-24.126
	H8.31c-4.442,0-8.042-3.6-8.042-8.042S3.868,0,8.31,0h36.457c22.172,0,40.209,18.037,40.209,40.209v386.547H503.69
	c4.442,0,8.042,3.6,8.042,8.042S508.132,442.84,503.69,442.84z"/>
</svg>