<?xml version="1.0" encoding="iso-8859-1"?>
<!-- Uploaded to: SVG Repo, www.svgrepo.com, Generator: SVG Repo Mixer Tools -->
<svg height="800px" width="800px" version="1.1" id="Layer_1" xmlns="http://www.w3.org/2000/svg" xmlns:xlink="http://www.w3.org/1999/xlink" 
	 viewBox="0 0 512 512" xml:space="preserve">
<g>
	<path style="fill:#FF7452;" d="M100.756,512c-30.767,0-56.019-9.008-73.884-26.872c-30.946-30.947-35.32-84.076-12.316-149.602
		c22.327-63.595,67.958-131.952,128.486-192.482c60.531-60.53,128.888-106.16,192.482-128.487
		C401.053-8.446,454.18-4.074,485.127,26.872c30.946,30.947,35.32,84.076,12.316,149.602
		c-22.327,63.595-67.958,131.952-128.486,192.482l0,0l0,0c-60.531,60.528-128.888,106.159-192.482,128.486
		C148.774,507.167,123.286,512,100.756,512z M411.257,15.768c-20.666,0-44.403,4.553-70.492,13.713
		c-61.404,21.556-127.65,65.859-186.537,124.747C95.34,213.115,51.038,279.362,29.48,340.764
		c-20.879,59.472-17.833,106.77,8.577,133.178c14.825,14.826,36.238,22.288,62.686,22.289c20.666,0.002,44.403-4.553,70.492-13.713
		c61.403-21.556,127.65-65.86,186.536-124.748l0,0c58.889-58.887,103.191-125.133,124.748-186.536
		c20.879-59.472,17.833-106.77-8.577-133.178C459.118,23.231,437.705,15.768,411.257,15.768z"/>
	<path style="fill:#FF7452;" d="M411.433,511.999c-13.603,0-28.32-1.762-44.044-5.31c-48.06-10.848-103.539-38.675-156.217-78.354
		c-3.489-2.628-4.186-7.585-1.558-11.074c2.628-3.489,7.585-4.185,11.074-1.559c104.608,78.795,208.751,102.746,253.255,58.241
		c26.41-26.409,29.456-73.705,8.577-133.178c-21.556-61.403-65.86-127.649-124.748-186.536
		C298.884,95.34,232.638,51.036,171.235,29.479C111.762,8.6,64.466,11.648,38.057,38.057
		C-6.032,82.145,17.274,185.432,94.736,289.229c2.613,3.5,1.893,8.455-1.608,11.067c-3.499,2.614-8.455,1.893-11.067-1.608
		C42.413,245.56,15.799,191.95,5.098,143.652C-6.176,92.773,1.354,52.391,26.873,26.872C57.82-4.074,110.947-8.446,176.475,14.557
		c63.594,22.327,131.951,67.958,192.481,128.487c60.528,60.53,106.16,128.887,128.486,192.482
		c23.004,65.526,18.63,118.655-12.316,149.602C467.304,502.95,442.244,511.999,411.433,511.999z"/>
</g>
<circle style="fill:#458FDE;" cx="256" cy="256" r="126.529"/>
<path style="fill:#4F5AA8;" d="M372.84,322.437c31.402-55.011,18.955-126.364-28.673-167.837
	c-41.566-36.195-102.834-43.247-151.464-17.177c-51.471,27.592-79.882,87.054-68.64,144.462
	c9.501,48.52,46.319,88.939,93.703,103.017c29.193,8.674,61.106,7.073,89.268-4.528C332.577,369.851,361.414,348.487,372.84,322.437
	C384.033,302.828,372.601,322.978,372.84,322.437z M374.352,248.092h-22.046c-0.69-16.429-3.519-32.538-8.322-47.449h16.901
	C368.482,214.979,373.224,231.049,374.352,248.092z M352.305,263.908h22.045c-1.128,17.045-5.871,33.113-13.471,47.449h-16.896
	C348.788,296.446,351.616,280.336,352.305,263.908z M350.836,184.827h-12.904c-4.628-10.357-10.209-19.649-16.523-27.732
	C332.726,164.603,342.687,173.995,350.836,184.827z M302.017,353.142c-4.5,0.64-9.077,1.042-13.718,1.194
	c3.146-9.108,5.476-18.697,7.154-27.163H320.4C315.199,337.283,308.968,346.012,302.017,353.142z M226.17,268.517
	c-0.045-1.535-0.1-3.066-0.129-4.609h59.933c-0.316,16.551-1.622,32.708-3.831,47.449h-23.961
	C251.071,294.614,240.007,279.945,226.17,268.517z M158.478,242.886c-0.582-4.922-0.89-9.927-0.89-15.005
	c0-9.354,1.021-18.467,2.951-27.239h7.478c-4.302,13.352-7.007,27.669-8.023,42.311
	C159.489,242.932,158.985,242.903,158.478,242.886z M175.729,244.794c1.003-15.434,4.047-30.449,9.003-44.151h29.144
	c-2.115,14.861-3.364,30.985-3.667,47.449h-21.439C184.525,246.74,180.172,245.636,175.729,244.794z M282.795,144.253
	c14.794,7.77,27.96,21.824,37.605,40.574h-24.946C292.914,172.022,288.899,156.643,282.795,144.253z M285.974,248.092h-59.949
	c0.316-16.551,1.622-32.709,3.831-47.449h52.287C284.352,215.383,285.658,231.541,285.974,248.092z M279.307,184.827h-46.613
	c7.247-34.362,17.875-47.449,23.307-47.449S272.06,150.464,279.307,184.827z M229.205,144.253
	c-6.105,12.389-10.119,27.769-12.658,40.574H191.6C201.245,166.077,214.411,152.023,229.205,144.253z M267.048,353.261
	c-0.147-8.991-1.362-17.726-3.511-26.088h15.771c-2.308,10.946-4.96,19.725-7.678,26.618
	C270.094,353.639,268.566,353.466,267.048,353.261z M298.124,311.356c2.115-14.861,3.364-30.985,3.667-47.449h34.69
	c-0.758,16.594-3.905,32.771-9.213,47.449H298.124z M301.791,248.092c-0.304-16.464-1.552-32.588-3.667-47.449h29.144
	c5.309,14.677,8.455,30.854,9.213,47.449H301.791z M190.574,157.113c-6.307,8.079-11.883,17.364-16.508,27.713h-8.94
	c1.142-3.15,2.403-6.241,3.78-9.269C175.355,168.582,182.633,162.386,190.574,157.113z M336.441,343.094
	c-3.026,1.377-6.116,2.637-9.263,3.778c3.98-6.042,7.591-12.62,10.754-19.7h12.892C346.513,332.902,341.699,338.234,336.441,343.094
	z"/>
<path style="fill:#FFD652;" d="M154.776,258.636c-53.198,0-96.479,43.28-96.479,96.479s43.28,96.479,96.479,96.479
	s96.479-43.28,96.479-96.479S207.975,258.636,154.776,258.636z"/>
<path style="fill:#FB9D46;" d="M184.298,422.071c-53.198,0-96.479-43.28-96.479-96.479c0-19.06,5.557-36.844,15.133-51.823
	c-26.831,17.153-44.655,47.206-44.655,81.346c0,53.198,43.28,96.479,96.479,96.479c34.139,0,64.193-17.825,81.346-44.655
	C221.143,416.514,203.358,422.071,184.298,422.071z"/>
<path style="fill:#FF7452;" d="M162.684,326.117h16.178h5.438c4.368,0,7.908-3.54,7.908-7.908s-3.54-7.908-7.908-7.908h-5.438
	h-16.178v-8.962c0-4.368-3.54-7.908-7.908-7.908c-4.368,0-7.908,3.54-7.908,7.908v8.962h-1.065h-5.789
	c-10.174,0-18.452,8.278-18.452,18.452v16.871c0,10.174,8.278,18.452,18.452,18.452h6.854v22.143h-21.615
	c-4.368,0-7.908,3.54-7.908,7.908c0,4.368,3.54,7.908,7.908,7.908h21.615v8.962c0,4.368,3.54,7.908,7.908,7.908
	c4.368,0,7.908-3.54,7.908-7.908v-8.962h6.854c10.174,0,18.452-8.278,18.452-18.452v-16.871c0-10.174-8.278-18.452-18.452-18.452
	h-6.854v-16.336V326.117z M137.378,345.624v-16.871c0-1.454,1.182-2.636,2.636-2.636h5.789h1.065v5.807v16.336h-6.854
	C138.561,348.26,137.378,347.078,137.378,345.624z M172.174,366.712v16.871c0,1.454-1.182,2.636-2.636,2.636h-6.854v-22.143h6.854
	C170.992,364.076,172.174,365.259,172.174,366.712z"/>
</svg>